<!-- Generated by IcoMoon.io -->
<svg version="1.1" xmlns="http://www.w3.org/2000/svg" width="1024" height="1024" viewBox="0 0 1024 1024">
<g id="icomoon-ignore">
</g>
<path fill="#000" d="M918.528 183.808v655.36q0 34.304-19.968 61.44-19.968 26.624-53.76 35.84l-293.376 84.48q-6.144 1.536-13.824 3.072h-11.264q-16.896 0-30.72-4.608t-28.16-12.288l-192-108.544q-10.752-6.144-16.896-15.872t-6.144-22.016q0-18.432 13.312-31.232 12.8-12.8 31.232-12.8h248.832v-604.672l-187.392 66.56q-22.016 8.192-35.84 28.672-13.824 19.456-13.824 43.52v344.577q0 21.504-10.752 38.912-10.24 17.408-29.184 27.648l-88.065 48.128q-12.288 6.656-24.576 6.656-20.992 0-35.84-14.848t-14.848-36.352v-485.377q0-26.624 13.824-49.664 14.336-25.6 37.376-38.912l315.393-179.2q10.752-6.144 23.040-9.216t24.576-3.072q8.704 0 15.872 1.536 7.168 1.024 15.872 3.584l293.376 81.408q16.896 4.608 30.208 13.824t23.040 22.016q10.24 13.312 15.36 28.672 5.12 15.872 5.12 32.768zM850.944 839.167v-655.36q0-11.776-6.144-20.48-7.68-9.728-18.944-11.776l-144.384-39.936q-15.872-4.608-33.792-9.216-16.896-5.632-33.28-9.728v839.68l211.456-61.952q11.264-2.048 18.944-10.752 6.144-8.704 6.144-20.48z"></path>
</svg>
